<svg width="125" height="125" viewBox="0 0 125 125" fill="none" xmlns="http://www.w3.org/2000/svg">
<path d="M61.5249 30.1001C61.8206 30.2222 62.057 30.5151 62.4118 30.5151C62.737 30.5151 63.2395 30.4175 63.2691 30.1489C63.3282 29.8072 62.7074 29.5875 62.3231 29.441C61.8206 29.2701 61.1702 29.1969 60.6972 29.4166C60.579 29.4654 60.4607 29.5875 60.5199 29.6851C60.6085 30.0025 61.1998 29.9536 61.5249 30.1001V30.1001ZM55.051 30.5151C55.4057 30.5151 55.6422 30.2222 55.9378 30.1001C56.263 29.9536 56.8542 30.0025 56.9725 29.7095C57.0316 29.6119 56.9134 29.4898 56.7951 29.441C56.3221 29.2213 55.6718 29.2945 55.1692 29.4654C54.7849 29.6119 54.1642 29.8316 54.2233 30.1733C54.2528 30.4175 54.7554 30.5395 55.051 30.5151V30.5151ZM120.411 98.5758C119.347 97.5994 118.844 95.7441 118.283 93.7667C117.751 91.7893 117.13 89.6655 115.179 88.2984C114.795 88.0299 114.41 87.7857 113.996 87.5904C113.612 87.3951 113.198 87.2243 112.784 87.1022C115.504 80.4377 114.44 73.7976 111.691 67.7923C108.321 60.4443 102.438 54.0239 97.9445 49.6297C92.8896 44.3811 87.9824 39.4011 88.0711 32.0531C88.2189 20.8479 89.5787 0.0244826 65.6635 7.05934e-05C35.3927 -0.0487535 42.9604 25.2421 42.6352 33.0051C42.1327 38.7176 40.7433 43.2094 35.9839 48.7997C30.3968 54.2924 22.5335 63.154 18.8088 72.4062C17.0351 76.7759 16.2074 81.2189 16.976 85.4178C15.0545 86.8337 13.606 89.0063 12.0688 90.349C10.8272 91.3987 9.02395 91.7893 7.04333 92.3752C5.06272 92.9611 2.90474 93.8399 1.57448 95.9149C0.953692 96.867 0.746762 97.8923 0.746762 98.942C0.746762 99.8941 0.92413 100.871 1.1015 101.823C1.45624 103.8 1.84053 105.655 1.33799 106.9C-0.199201 110.416 -0.406131 112.857 0.68764 114.639C1.81097 116.421 4.05764 117.202 6.62947 117.642C11.7436 118.52 18.6905 118.301 24.1594 120.693C30.0125 123.232 35.9544 124.135 40.6842 123.232C44.1133 122.597 46.9216 120.888 48.3406 118.301C52.0357 118.276 56.1152 116.983 62.6187 116.69C67.0234 116.397 72.5513 117.983 78.907 117.69C79.0844 118.252 79.3209 118.813 79.6461 119.326V119.35C82.0997 123.427 86.6817 125.283 91.5593 124.965C96.4665 124.648 101.64 122.28 105.837 118.154C109.858 114.151 116.48 112.491 120.884 110.294C123.072 109.195 124.845 107.828 124.993 105.826C125.111 103.824 123.693 101.603 120.411 98.5758ZM62.3822 21.3118C65.2792 15.8923 72.4922 15.99 75.3892 21.2141C77.3107 24.6806 76.4534 28.7574 74.1181 31.0766C73.6451 30.8813 72.374 30.4419 70.3933 29.8804C70.7185 29.5875 71.3098 29.2213 71.5462 28.7574C72.9652 25.8768 71.4871 22.1662 68.8562 22.093C66.6982 21.9709 64.7471 24.7295 65.3679 27.7077C64.1559 27.2195 62.5891 26.8533 61.5249 26.6336C61.2293 24.9492 61.4363 23.0694 62.3822 21.3118V21.3118ZM50.3507 18.5044C53.3364 18.5044 56.4995 21.9709 55.997 26.6824C54.9623 26.9265 53.8981 27.2927 52.9817 27.8054C53.3364 25.6327 52.0062 22.8986 50.1438 23.0206C47.6607 23.1915 47.2468 28.196 49.6117 29.8804C49.9073 30.0757 50.1734 29.8316 47.8676 31.2231C43.256 27.6589 44.7636 18.5044 50.3507 18.5044V18.5044ZM46.3304 33.3225C48.1632 32.1995 50.3507 30.8813 50.4986 30.7592C51.8879 29.6851 54.4893 27.2927 58.7462 27.2927C60.845 27.2927 63.3577 27.8542 66.4026 29.4654C68.2649 30.4663 69.743 30.5395 73.0834 31.7357C75.5666 32.5901 77.1333 34.1037 76.1874 36.1787C75.4188 37.912 72.9356 39.694 69.4769 40.5973C66.1956 41.4761 63.6238 44.5032 58.1845 44.2347C57.0316 44.1858 56.1152 43.9906 55.3466 43.722C52.9817 42.8676 51.7401 41.1832 49.4343 40.0602C46.8921 38.8884 45.5322 37.5214 45.0888 36.3252C44.675 35.129 45.0888 34.1281 46.3304 33.3225V33.3225ZM47.3059 114.859C46.5078 123.427 34.3285 123.256 25.0462 119.253C16.2074 115.396 4.76711 117.666 2.43176 113.907C1.72229 112.759 1.72229 110.806 3.20036 107.462V107.413C3.90983 105.558 3.37772 103.507 3.02299 101.579C2.66825 99.6744 2.49088 97.9167 3.28904 96.6961C4.32369 95.0605 5.80176 94.4746 7.66412 93.9376C10.7089 93.0343 11.1524 93.1076 13.4582 91.5208C15.084 90.1293 16.2665 88.3716 17.6854 87.1266C19.1931 85.7839 20.6416 85.1492 22.9178 85.4422C25.3123 85.7351 27.3816 87.1022 29.3917 89.3481L35.1858 98.0388C37.9941 102.897 47.9267 109.854 47.3059 114.859V114.859ZM46.8921 108.536C45.68 106.925 44.0542 105.216 42.6352 103.751C44.7341 103.751 46.8329 103.214 47.572 101.579C48.2519 100.065 47.572 97.9411 45.3844 95.4999C41.3936 91.0569 34.0624 87.566 34.0624 87.566C30.0716 85.5154 27.825 83.001 26.7903 80.2668C25.7557 77.5327 25.9035 74.5788 26.7016 71.6738C28.2388 66.0834 32.2001 60.6396 34.7423 57.2219C35.4222 56.8069 34.9788 58.0031 32.1705 62.2996C29.6578 66.2299 24.9575 75.3112 31.4019 82.4151C31.5793 77.3618 33.0278 72.2109 35.4814 67.4017C39.0287 60.7128 46.5078 49.1171 47.099 39.8893C47.4242 40.0846 48.4588 40.6705 48.9318 40.8902C50.2916 41.5493 51.3263 42.5258 52.6565 43.4047C56.3221 45.8459 61.0815 45.6506 65.1906 43.6976C67.0234 42.8432 68.5014 41.8667 69.8908 41.5005C72.8174 40.7437 75.1527 39.4011 76.483 37.8387C78.7592 45.26 84.0803 55.9769 87.4798 61.201C89.2831 63.984 92.8896 69.8673 94.4563 76.9712C95.4318 76.9468 96.5256 77.0689 97.6785 77.313C101.758 68.5979 94.2198 59.1992 90.7907 56.5872C89.4013 55.4642 89.3422 54.976 90.0221 55.0004C93.7468 57.7345 98.654 63.2272 100.428 69.4035C101.255 72.2353 101.403 75.1891 100.546 78.1186C105.394 79.7786 111.158 82.4883 109.621 86.614C108.971 86.5895 108.675 86.614 108.38 86.614C109.326 84.1483 107.227 82.3174 101.64 80.2424C95.8457 78.143 90.9976 78.143 90.3177 83.2939C86.7408 84.3192 84.908 86.8825 83.9916 89.9584C83.1639 92.6926 82.9274 95.9882 82.6909 99.6988C82.5431 101.579 81.6267 104.093 80.6807 106.778C71.1915 112.369 58.0071 114.81 46.8921 108.536V108.536ZM122.983 105.729C122.717 109.83 110.804 110.587 104.3 117.08C100.398 120.913 95.6092 123.037 91.4115 123.305C87.2138 123.574 83.5777 122.133 81.4493 118.594C80.0599 115.884 80.7398 112.955 81.7745 109.732C82.8682 106.266 84.4941 102.701 84.7011 99.8209C84.9375 96.1102 85.2036 92.8634 85.9426 90.3734C86.7112 87.859 87.8937 86.1745 89.9925 85.2225C90.0812 85.1736 90.1995 85.1492 90.2882 85.1004C90.5246 88.3228 92.4461 91.594 95.8457 92.302C99.5704 93.1076 104.921 90.4711 107.197 88.3228C109.858 88.2496 111.838 88.1031 113.878 89.5678C116.805 91.6428 115.977 96.9647 118.933 99.7232C122.067 102.555 123.072 104.484 122.983 105.729ZM47.4833 36.3008C48.0745 36.7646 48.8727 37.3993 49.8482 38.034C51.7992 39.3034 54.5189 40.6217 57.9185 40.6217C61.3476 40.6217 64.5698 39.1814 67.319 37.9852C68.7675 37.3505 70.5412 36.2763 71.6941 35.4463C72.8469 34.6163 73.4382 33.9084 72.6105 33.8351C71.7827 33.7619 71.8419 34.4699 70.8368 35.0802C69.5361 35.8613 67.9693 36.8866 66.7277 37.4725C64.5402 38.4978 60.9633 39.9626 57.8889 39.9626C54.8145 39.9626 52.3609 38.7908 50.5281 37.5946C49.6117 36.9843 48.8431 36.374 48.2519 35.9102C47.8085 35.5684 47.6902 34.7872 46.9807 34.714C46.5669 34.6896 46.4486 35.6172 47.4833 36.3008V36.3008Z" fill="#353535"/>
</svg>
