<svg width="175" height="175" viewBox="0 0 175 175" fill="none" xmlns="http://www.w3.org/2000/svg">
<path d="M159.789 70.4661C167.898 78.377 164.602 94.9349 152.405 107.436C140.209 119.937 123.737 123.64 115.629 115.729C107.52 107.819 110.833 91.2778 123.03 78.7765C135.227 66.2752 151.681 62.5553 159.789 70.4661ZM95.0878 51.5148C107.285 39.0135 109.546 23.5503 101.438 15.6395C93.3295 7.72869 77.9268 10.3709 65.73 22.8722C53.5332 35.3735 49.1687 52.992 57.2771 60.9028C65.3854 68.8137 62.7773 81.8352 50.5805 94.3365C38.3837 106.838 35.7697 124.061 43.878 131.971C51.9864 139.882 67.7415 135.48 79.9383 122.979C92.1351 110.478 96.1471 94.619 88.0388 86.7081C79.9304 78.7973 82.891 64.0161 95.0878 51.5148Z" fill="#2D2D2D"/>
</svg>
