<svg width="125" height="125" viewBox="0 0 125 125" fill="none" xmlns="http://www.w3.org/2000/svg">
<path d="M114.023 85.254C102.177 75.7106 104.557 66.2412 109.868 53.9774C119.072 32.7251 103.792 8.33562 81.5827 2.02708C57.6043 -4.7844 31.0709 5.94331 22.1458 28.6009C19.8956 34.3354 18.9297 40.4496 19.3094 46.5558C19.7567 53.7684 23.1084 59.4878 25.5279 66.1602C29.9679 78.4064 18.2743 88.8023 8.31995 94.8665C-3.76244 102.239 -1.05535 104.597 6.14437 105.086C12.1791 105.496 17.6258 103.975 22.9917 101.413C25.3666 100.278 33.4946 96.7908 34.6415 94.4332C31.4963 100.925 25.1002 112.183 29.1011 119.36C34.0315 128.205 46.4252 111.604 48.9025 108.176C51.1202 105.106 59.9929 88.3324 65.327 96.7193C70.1968 104.376 67.547 115.369 74.5524 122.262C83.0332 130.611 87.7574 117.791 87.8237 111.465C87.8658 107.459 86.2491 88.0643 95.542 96.8308C101.072 102.051 109.199 114.209 118.403 113.194C128.402 112.091 112.692 96.6004 111.107 93.9812C112.5 95.0259 124.96 102.313 125 96.3055C125.028 91.7183 117.234 87.8419 114.023 85.254Z" fill="#2D2D2D"/>
</svg>
