<svg width="125" height="125" viewBox="0 0 125 125" fill="none" xmlns="http://www.w3.org/2000/svg">
<path d="M121.154 49.4443L94.2989 45.6747L104.509 20.2006C106.137 16.138 101.677 12.344 98.0171 14.6756L75.0583 29.2974L66.7356 3.12994C66.074 1.0425 64.2869 0 62.4998 0C60.7127 0 58.9256 1.0425 58.2639 3.12994L49.9412 29.2999L26.9824 14.678C23.3228 12.3464 18.8648 16.1405 20.4907 20.203L30.7006 45.6772L3.84534 49.4443C-0.436865 50.0449 -1.4476 55.858 2.37318 57.9088L26.3379 70.7655L8.15439 91.1615C5.48839 94.1522 7.73447 98.7129 11.399 98.7129C11.7188 98.7129 12.0509 98.6787 12.3926 98.603L38.8988 92.829L37.8954 120.308C37.7904 123.152 40.0609 125 42.39 125C43.6473 125 44.9266 124.46 45.8568 123.247L62.5022 101.543L79.1476 123.247C80.0778 124.46 81.3546 125 82.6144 125C84.9435 125 87.214 123.152 87.109 120.308L86.1056 92.829L112.612 98.603C116.85 99.521 119.743 94.4037 116.848 91.159L98.6641 70.7631L122.629 57.9064C126.447 55.858 125.436 50.0449 121.154 49.4443ZM82.6437 76.0952L69.9753 73.3364L70.4563 86.469L62.4998 76.0952L54.5433 86.469L55.0218 73.3364L42.3534 76.0952L51.0448 66.3465L39.5897 60.2014L52.4241 58.3996L47.5438 46.224L58.5179 53.2115L62.4998 40.7039L66.4768 53.2115L77.4508 46.224L72.5705 58.3996L85.4049 60.2014L73.9499 66.3465L82.6437 76.0952Z" fill="#353535"/>
</svg>
